<?xml version="1.0" encoding="UTF-8" standalone="no"?><svg xmlns="http://www.w3.org/2000/svg" xmlns:xlink="http://www.w3.org/1999/xlink" contentScriptType="application/ecmascript" contentStyleType="text/css" height="286px" preserveAspectRatio="none" style="width:482px;height:286px;" version="1.1" viewBox="0 0 482 286" width="482px" zoomAndPan="magnify"><defs/><g><text fill="#000000" font-family="Serif" font-size="10" lengthAdjust="spacingAndGlyphs" textLength="6" x="5" y="37.2822">1</text><text fill="#000000" font-family="Serif" font-size="12" font-weight="bold" lengthAdjust="spacingAndGlyphs" textLength="64" x="5" y="11.2676">JANUARY</text><line style="stroke: #C0C0C0; stroke-width: 1.0;" x1="0" x2="0" y1="0" y2="16"/><line style="stroke: #C0C0C0; stroke-width: 1.0;" x1="0" x2="0" y1="16" y2="284"/><text fill="#000000" font-family="Serif" font-size="10" lengthAdjust="spacingAndGlyphs" textLength="6" x="21" y="37.2822">2</text><text fill="#000000" font-family="Serif" font-size="10" lengthAdjust="spacingAndGlyphs" textLength="14" x="17" y="25.2822">Th</text><line style="stroke: #C0C0C0; stroke-width: 1.0;" x1="16" x2="16" y1="16" y2="284"/><text fill="#000000" font-family="Serif" font-size="10" lengthAdjust="spacingAndGlyphs" textLength="6" x="37" y="37.2822">3</text><text fill="#000000" font-family="Serif" font-size="10" lengthAdjust="spacingAndGlyphs" textLength="12" x="34" y="25.2822">Fr</text><line style="stroke: #C0C0C0; stroke-width: 1.0;" x1="32" x2="32" y1="16" y2="284"/><rect fill="#E0E8E8" height="268" style="stroke: none; stroke-width: 1.0;" width="15" x="49" y="16"/><line style="stroke: #C0C0C0; stroke-width: 1.0;" x1="48" x2="48" y1="16" y2="284"/><rect fill="#E0E8E8" height="268" style="stroke: none; stroke-width: 1.0;" width="15" x="65" y="16"/><line style="stroke: #C0C0C0; stroke-width: 1.0;" x1="64" x2="64" y1="16" y2="284"/><text fill="#000000" font-family="Serif" font-size="10" lengthAdjust="spacingAndGlyphs" textLength="6" x="85" y="37.2822">6</text><text fill="#000000" font-family="Serif" font-size="10" lengthAdjust="spacingAndGlyphs" textLength="16" x="80" y="25.2822">Mo</text><line style="stroke: #C0C0C0; stroke-width: 1.0;" x1="80" x2="80" y1="16" y2="284"/><text fill="#000000" font-family="Serif" font-size="10" lengthAdjust="spacingAndGlyphs" textLength="6" x="101" y="37.2822">7</text><text fill="#000000" font-family="Serif" font-size="10" lengthAdjust="spacingAndGlyphs" textLength="14" x="97" y="25.2822">Tu</text><line style="stroke: #C0C0C0; stroke-width: 1.0;" x1="96" x2="96" y1="16" y2="284"/><text fill="#000000" font-family="Serif" font-size="10" lengthAdjust="spacingAndGlyphs" textLength="6" x="117" y="37.2822">8</text><line style="stroke: #C0C0C0; stroke-width: 1.0;" x1="112" x2="112" y1="16" y2="284"/><text fill="#000000" font-family="Serif" font-size="10" lengthAdjust="spacingAndGlyphs" textLength="6" x="133" y="37.2822">9</text><text fill="#000000" font-family="Serif" font-size="10" lengthAdjust="spacingAndGlyphs" textLength="14" x="129" y="25.2822">Th</text><line style="stroke: #C0C0C0; stroke-width: 1.0;" x1="128" x2="128" y1="16" y2="284"/><text fill="#000000" font-family="Serif" font-size="10" lengthAdjust="spacingAndGlyphs" textLength="12" x="146" y="37.2822">10</text><text fill="#000000" font-family="Serif" font-size="10" lengthAdjust="spacingAndGlyphs" textLength="12" x="146" y="25.2822">Fr</text><line style="stroke: #C0C0C0; stroke-width: 1.0;" x1="144" x2="144" y1="16" y2="284"/><rect fill="#E0E8E8" height="268" style="stroke: none; stroke-width: 1.0;" width="15" x="161" y="16"/><line style="stroke: #C0C0C0; stroke-width: 1.0;" x1="160" x2="160" y1="16" y2="284"/><rect fill="#E0E8E8" height="268" style="stroke: none; stroke-width: 1.0;" width="15" x="177" y="16"/><line style="stroke: #C0C0C0; stroke-width: 1.0;" x1="176" x2="176" y1="16" y2="284"/><text fill="#000000" font-family="Serif" font-size="10" lengthAdjust="spacingAndGlyphs" textLength="12" x="194" y="37.2822">13</text><text fill="#000000" font-family="Serif" font-size="10" lengthAdjust="spacingAndGlyphs" textLength="16" x="192" y="25.2822">Mo</text><line style="stroke: #C0C0C0; stroke-width: 1.0;" x1="192" x2="192" y1="16" y2="284"/><text fill="#000000" font-family="Serif" font-size="10" lengthAdjust="spacingAndGlyphs" textLength="12" x="210" y="37.2822">14</text><text fill="#000000" font-family="Serif" font-size="10" lengthAdjust="spacingAndGlyphs" textLength="14" x="209" y="25.2822">Tu</text><line style="stroke: #C0C0C0; stroke-width: 1.0;" x1="208" x2="208" y1="16" y2="284"/><text fill="#000000" font-family="Serif" font-size="10" lengthAdjust="spacingAndGlyphs" textLength="12" x="226" y="37.2822">15</text><line style="stroke: #C0C0C0; stroke-width: 1.0;" x1="224" x2="224" y1="16" y2="284"/><text fill="#000000" font-family="Serif" font-size="10" lengthAdjust="spacingAndGlyphs" textLength="12" x="242" y="37.2822">16</text><text fill="#000000" font-family="Serif" font-size="10" lengthAdjust="spacingAndGlyphs" textLength="14" x="241" y="25.2822">Th</text><line style="stroke: #C0C0C0; stroke-width: 1.0;" x1="240" x2="240" y1="16" y2="284"/><text fill="#000000" font-family="Serif" font-size="10" lengthAdjust="spacingAndGlyphs" textLength="12" x="258" y="37.2822">17</text><text fill="#000000" font-family="Serif" font-size="10" lengthAdjust="spacingAndGlyphs" textLength="12" x="258" y="25.2822">Fr</text><line style="stroke: #C0C0C0; stroke-width: 1.0;" x1="256" x2="256" y1="16" y2="284"/><rect fill="#E0E8E8" height="268" style="stroke: none; stroke-width: 1.0;" width="15" x="273" y="16"/><line style="stroke: #C0C0C0; stroke-width: 1.0;" x1="272" x2="272" y1="16" y2="284"/><rect fill="#E0E8E8" height="268" style="stroke: none; stroke-width: 1.0;" width="15" x="289" y="16"/><line style="stroke: #C0C0C0; stroke-width: 1.0;" x1="288" x2="288" y1="16" y2="284"/><text fill="#000000" font-family="Serif" font-size="10" lengthAdjust="spacingAndGlyphs" textLength="12" x="306" y="37.2822">20</text><text fill="#000000" font-family="Serif" font-size="10" lengthAdjust="spacingAndGlyphs" textLength="16" x="304" y="25.2822">Mo</text><line style="stroke: #C0C0C0; stroke-width: 1.0;" x1="304" x2="304" y1="16" y2="284"/><text fill="#000000" font-family="Serif" font-size="10" lengthAdjust="spacingAndGlyphs" textLength="12" x="322" y="37.2822">21</text><text fill="#000000" font-family="Serif" font-size="10" lengthAdjust="spacingAndGlyphs" textLength="14" x="321" y="25.2822">Tu</text><line style="stroke: #C0C0C0; stroke-width: 1.0;" x1="320" x2="320" y1="16" y2="284"/><text fill="#000000" font-family="Serif" font-size="10" lengthAdjust="spacingAndGlyphs" textLength="12" x="338" y="37.2822">22</text><line style="stroke: #C0C0C0; stroke-width: 1.0;" x1="336" x2="336" y1="16" y2="284"/><text fill="#000000" font-family="Serif" font-size="10" lengthAdjust="spacingAndGlyphs" textLength="12" x="354" y="37.2822">23</text><text fill="#000000" font-family="Serif" font-size="10" lengthAdjust="spacingAndGlyphs" textLength="14" x="353" y="25.2822">Th</text><line style="stroke: #C0C0C0; stroke-width: 1.0;" x1="352" x2="352" y1="16" y2="284"/><text fill="#000000" font-family="Serif" font-size="10" lengthAdjust="spacingAndGlyphs" textLength="12" x="370" y="37.2822">24</text><text fill="#000000" font-family="Serif" font-size="10" lengthAdjust="spacingAndGlyphs" textLength="12" x="370" y="25.2822">Fr</text><line style="stroke: #C0C0C0; stroke-width: 1.0;" x1="368" x2="368" y1="16" y2="284"/><rect fill="#E0E8E8" height="268" style="stroke: none; stroke-width: 1.0;" width="15" x="385" y="16"/><line style="stroke: #C0C0C0; stroke-width: 1.0;" x1="384" x2="384" y1="16" y2="284"/><rect fill="#E0E8E8" height="268" style="stroke: none; stroke-width: 1.0;" width="15" x="401" y="16"/><line style="stroke: #C0C0C0; stroke-width: 1.0;" x1="400" x2="400" y1="16" y2="284"/><text fill="#000000" font-family="Serif" font-size="10" lengthAdjust="spacingAndGlyphs" textLength="12" x="418" y="37.2822">27</text><text fill="#000000" font-family="Serif" font-size="10" lengthAdjust="spacingAndGlyphs" textLength="16" x="416" y="25.2822">Mo</text><line style="stroke: #C0C0C0; stroke-width: 1.0;" x1="416" x2="416" y1="16" y2="284"/><text fill="#000000" font-family="Serif" font-size="10" lengthAdjust="spacingAndGlyphs" textLength="12" x="434" y="37.2822">28</text><text fill="#000000" font-family="Serif" font-size="10" lengthAdjust="spacingAndGlyphs" textLength="14" x="433" y="25.2822">Tu</text><line style="stroke: #C0C0C0; stroke-width: 1.0;" x1="432" x2="432" y1="16" y2="284"/><text fill="#000000" font-family="Serif" font-size="10" lengthAdjust="spacingAndGlyphs" textLength="12" x="450" y="37.2822">29</text><line style="stroke: #C0C0C0; stroke-width: 1.0;" x1="448" x2="448" y1="16" y2="284"/><text fill="#000000" font-family="Serif" font-size="10" lengthAdjust="spacingAndGlyphs" textLength="12" x="466" y="37.2822">30</text><text fill="#000000" font-family="Serif" font-size="10" lengthAdjust="spacingAndGlyphs" textLength="14" x="465" y="25.2822">Th</text><line style="stroke: #C0C0C0; stroke-width: 1.0;" x1="464" x2="464" y1="16" y2="284"/><line style="stroke: #C0C0C0; stroke-width: 1.0;" x1="480" x2="480" y1="16" y2="284"/><line style="stroke: #C0C0C0; stroke-width: 1.0;" x1="0" x2="480" y1="0" y2="0"/><line style="stroke: #C0C0C0; stroke-width: 1.0;" x1="0" x2="480" y1="41" y2="41"/><line style="stroke: #000000; stroke-width: 1.0;" x1="0" x2="8" y1="52" y2="52"/><line style="stroke: #000000; stroke-width: 1.0;" x1="72" x2="480" y1="52" y2="52"/><text fill="#000000" font-family="Serif" font-size="11" lengthAdjust="spacingAndGlyphs" textLength="60" x="10" y="54.2104">Milestones</text><polygon fill="#ADFF2F" points="8,62,14,68,8,74,2,68" style="stroke: #008000; stroke-width: 1.0;"/><text fill="#000000" font-family="Serif" font-size="11" lengthAdjust="spacingAndGlyphs" textLength="66" x="16" y="70.8081">milestone-A</text><polygon fill="#EE82EE" points="8,78,14,84,8,90,2,84" style="stroke: #9400D3; stroke-width: 1.0;"/><text fill="#000000" font-family="Serif" font-size="11" lengthAdjust="spacingAndGlyphs" textLength="66" x="16" y="86.8081">milestone-A</text><polygon fill="#ADFF2F" points="40,94,46,100,40,106,34,100" style="stroke: #008000; stroke-width: 1.0;"/><text fill="#000000" font-family="Serif" font-size="11" lengthAdjust="spacingAndGlyphs" textLength="66" x="48" y="102.8081">milestone-B</text><polygon fill="#EE82EE" points="88,110,94,116,88,122,82,116" style="stroke: #9400D3; stroke-width: 1.0;"/><text fill="#000000" font-family="Serif" font-size="11" lengthAdjust="spacingAndGlyphs" textLength="66" x="96" y="118.8081">milestone-B</text><polygon fill="#ADFF2F" points="88,126,94,132,88,138,82,132" style="stroke: #008000; stroke-width: 1.0;"/><text fill="#000000" font-family="Serif" font-size="11" lengthAdjust="spacingAndGlyphs" textLength="66" x="96" y="134.8081">milestone-C</text><line style="stroke: #000000; stroke-width: 1.0;" x1="0" x2="8" y1="148" y2="148"/><line style="stroke: #000000; stroke-width: 1.0;" x1="45" x2="480" y1="148" y2="148"/><text fill="#000000" font-family="Serif" font-size="11" lengthAdjust="spacingAndGlyphs" textLength="33" x="10" y="150.2104">Tasks</text><rect fill="#ADFF2F" height="12" rx="4" ry="4" style="stroke: #008000; stroke-width: 1.0;" width="220" x="2" y="158"/><text fill="#000000" font-family="Serif" font-size="11" lengthAdjust="spacingAndGlyphs" textLength="74" x="16" y="166.8081">task-1 {bob}</text><rect fill="#EE82EE" height="12" rx="4" ry="4" style="stroke: #9400D3; stroke-width: 1.0;" width="204" x="18" y="174"/><text fill="#000000" font-family="Serif" font-size="11" lengthAdjust="spacingAndGlyphs" textLength="36" x="32" y="182.8081">task-1</text><rect fill="#ADFF2F" height="12" rx="4" ry="4" style="stroke: #008000; stroke-width: 1.0;" width="108" x="226" y="190"/><text fill="#000000" font-family="Serif" font-size="11" lengthAdjust="spacingAndGlyphs" textLength="81" x="240" y="198.8081">task-2 {alice}</text><rect fill="#ADFF2F" height="12" rx="4" ry="4" style="stroke: #008000; stroke-width: 1.0;" width="140" x="338" y="206"/><text fill="#000000" font-family="Serif" font-size="11" lengthAdjust="spacingAndGlyphs" textLength="36" x="352" y="214.8081">task-3</text><text fill="#000000" font-family="Serif" font-size="13" lengthAdjust="spacingAndGlyphs" textLength="24" x="0" y="232.0669">bob</text><line style="stroke: #000000; stroke-width: 1.0;" x1="0" x2="480" y1="235.1328" y2="235.1328"/><text fill="#000000" font-family="Serif" font-size="9" lengthAdjust="spacingAndGlyphs" textLength="18" x="-1" y="244.354">100</text><text fill="#000000" font-family="Serif" font-size="9" lengthAdjust="spacingAndGlyphs" textLength="18" x="15" y="244.354">100</text><text fill="#000000" font-family="Serif" font-size="9" lengthAdjust="spacingAndGlyphs" textLength="18" x="31" y="244.354">100</text><text fill="#000000" font-family="Serif" font-size="9" lengthAdjust="spacingAndGlyphs" textLength="18" x="47" y="244.354">100</text><text fill="#000000" font-family="Serif" font-size="9" lengthAdjust="spacingAndGlyphs" textLength="18" x="63" y="244.354">100</text><text fill="#000000" font-family="Serif" font-size="9" lengthAdjust="spacingAndGlyphs" textLength="18" x="79" y="244.354">100</text><text fill="#000000" font-family="Serif" font-size="9" lengthAdjust="spacingAndGlyphs" textLength="18" x="95" y="244.354">100</text><text fill="#000000" font-family="Serif" font-size="9" lengthAdjust="spacingAndGlyphs" textLength="18" x="111" y="244.354">100</text><text fill="#000000" font-family="Serif" font-size="9" lengthAdjust="spacingAndGlyphs" textLength="18" x="127" y="244.354">100</text><text fill="#000000" font-family="Serif" font-size="9" lengthAdjust="spacingAndGlyphs" textLength="18" x="143" y="244.354">100</text><text fill="#000000" font-family="Serif" font-size="9" lengthAdjust="spacingAndGlyphs" textLength="18" x="159" y="244.354">100</text><text fill="#000000" font-family="Serif" font-size="9" lengthAdjust="spacingAndGlyphs" textLength="18" x="175" y="244.354">100</text><text fill="#000000" font-family="Serif" font-size="9" lengthAdjust="spacingAndGlyphs" textLength="18" x="191" y="244.354">100</text><text fill="#000000" font-family="Serif" font-size="9" lengthAdjust="spacingAndGlyphs" textLength="18" x="207" y="244.354">100</text><text fill="#000000" font-family="Serif" font-size="13" lengthAdjust="spacingAndGlyphs" textLength="30" x="0" y="264.0669">alice</text><line style="stroke: #000000; stroke-width: 1.0;" x1="0" x2="480" y1="267.1328" y2="267.1328"/><text fill="#000000" font-family="Serif" font-size="9" lengthAdjust="spacingAndGlyphs" textLength="18" x="223" y="276.354">100</text><text fill="#000000" font-family="Serif" font-size="9" lengthAdjust="spacingAndGlyphs" textLength="18" x="239" y="276.354">100</text><text fill="#000000" font-family="Serif" font-size="9" lengthAdjust="spacingAndGlyphs" textLength="18" x="255" y="276.354">100</text><text fill="#000000" font-family="Serif" font-size="9" lengthAdjust="spacingAndGlyphs" textLength="18" x="271" y="276.354">100</text><text fill="#000000" font-family="Serif" font-size="9" lengthAdjust="spacingAndGlyphs" textLength="18" x="287" y="276.354">100</text><text fill="#000000" font-family="Serif" font-size="9" lengthAdjust="spacingAndGlyphs" textLength="18" x="303" y="276.354">100</text><text fill="#000000" font-family="Serif" font-size="9" lengthAdjust="spacingAndGlyphs" textLength="18" x="319" y="276.354">100</text><line style="stroke: #CD0A0A; stroke-width: 1.5;" x1="216" x2="216" y1="172" y2="196"/><line style="stroke: #CD0A0A; stroke-width: 1.5;" x1="216" x2="224" y1="196" y2="196"/><polygon fill="#CD0A0A" points="220,192,220,196,220,200,224,196" style="stroke: #CD0A0A; stroke-width: 1.5;"/><line style="stroke: #CD0A0A; stroke-width: 1.5;" x1="328" x2="328" y1="204" y2="212"/><line style="stroke: #CD0A0A; stroke-width: 1.5;" x1="328" x2="336" y1="212" y2="212"/><polygon fill="#CD0A0A" points="332,208,332,212,332,216,336,212" style="stroke: #CD0A0A; stroke-width: 1.5;"/><!--MD5=[d41d8cd98f00b204e9800998ecf8427e]
--></g></svg>
